# xmcd
#
# Track frame offsets: 
#        150
#        16147
#        37290
#        47070
#        62370
#        76052
#        91802
#        106247
#        116752
#        128497
#
# Disc length: 1834 seconds
#
# Revision: 5
# Processed by: cddbd v1.5.2PL0 Copyright (c) Steve Scherf et al.
# Submitted via: ExactAudioCopyFreeDBPlugin 1.0
#
DISCID=7107280a
DTITLE=Various Artist - Christmas Time
DYEAR=1977
DGENRE=Christmas
TTITLE0=Julie Andrews - Hark! The Herald Angels Sing
TTITLE1=Engelbert Humperdinck - Silent Night
TTITLE2=Bobby Helms - Jingle Bell Rock
TTITLE3=Andy Williams - O Holy Night
TTITLE4=Doris Day - Toyland
TTITLE5=Elmo and Patsy - Grandma Got Run Over By A Reindeer
TTITLE6=Gene Autry - Rudolph, The Red Nosed Reindeer
TTITLE7=Jim Nabors - Joy To The World
TTITLE8=Jack Dorsey - Sleigh Ride
TTITLE9=Patti Page - We Wish You A Merry Christmas
EXTD=
EXTT0=
EXTT1=
EXTT2=
EXTT3=
EXTT4=
EXTT5=
EXTT6=
EXTT7=
EXTT8=
EXTT9=
PLAYORDER=
